<svg xmlns="http://www.w3.org/2000/svg" viewBox="0 0 680 420">
  <defs>
    <linearGradient id="room" x1="0" x2="1" y1="0" y2="1">
      <stop offset="0" stop-color="#ffffff"/>
      <stop offset="1" stop-color="#eef2f6"/>
    </linearGradient>
    <linearGradient id="glass" x1="0" x2="1">
      <stop offset="0" stop-color="#dbe8f3"/>
      <stop offset="1" stop-color="#f7f9fb"/>
    </linearGradient>
  </defs>
  <rect width="680" height="420" rx="28" fill="url(#room)"/>
  <rect x="52" y="48" width="224" height="170" rx="16" fill="url(#glass)" stroke="#d9e2ec" stroke-width="3"/>
  <path d="M74 184h180M164 48v170" stroke="#ffffff" stroke-width="8" opacity="0.9"/>
  <rect x="344" y="96" width="206" height="128" rx="14" fill="#102a43" opacity="0.9"/>
  <rect x="360" y="114" width="174" height="92" rx="8" fill="#1f3f5b"/>
  <path d="M392 154h94M392 178h62M392 130h126" stroke="#ffffff" stroke-width="6" stroke-linecap="round" opacity="0.75"/>
  <path d="M94 292h492" stroke="#102a43" stroke-width="10" stroke-linecap="round" opacity="0.6"/>
  <rect x="224" y="244" width="176" height="94" rx="10" fill="#ffffff" stroke="#d9e2ec" stroke-width="4"/>
  <path d="M250 268h122M250 292h84" stroke="#102a43" stroke-width="6" stroke-linecap="round" opacity="0.55"/>
  <rect x="430" y="254" width="84" height="84" rx="16" fill="#eef2f6" stroke="#d9e2ec" stroke-width="4"/>
  <circle cx="472" cy="296" r="24" fill="#102a43" opacity="0.35"/>
</svg>